<svg xmlns="http://www.w3.org/2000/svg" width="2000" height="1000" viewBox="0 0 2000 1000" preserveAspectRatio="xMidYMid slice">
  <defs>
    <linearGradient id="sky" x1="0" y1="0" x2="0" y2="1">
      <stop offset="0" stop-color="#1C2436"/>
      <stop offset="1" stop-color="#0E0F12"/>
    </linearGradient>
  </defs>
  <rect width="2000" height="1000" fill="url(#sky)"/>
  <g fill="#0B0C0F">
    <rect x="40" y="620" width="120" height="380"/>
    <rect x="190" y="470" width="90" height="530"/>
    <rect x="310" y="640" width="130" height="360"/>
    <rect x="470" y="360" width="100" height="640"/>
    <rect x="600" y="540" width="80" height="460"/>
    <rect x="710" y="270" width="130" height="730"/>
    <rect x="880" y="450" width="90" height="550"/>
    <rect x="1000" y="200" width="150" height="800"/>
    <rect x="1180" y="420" width="100" height="580"/>
    <rect x="1310" y="560" width="110" height="440"/>
    <rect x="1450" y="340" width="90" height="660"/>
    <rect x="1570" y="500" width="130" height="500"/>
    <rect x="1730" y="420" width="100" height="580"/>
    <rect x="1860" y="600" width="140" height="400"/>
  </g>
  <g fill="#243352" opacity="0.45">
    <rect x="720" y="300" width="9" height="12"/><rect x="745" y="340" width="9" height="12"/>
    <rect x="1010" y="240" width="9" height="12"/><rect x="1045" y="290" width="9" height="12"/>
    <rect x="1090" y="350" width="9" height="12"/><rect x="1460" y="380" width="9" height="12"/>
    <rect x="1485" y="430" width="9" height="12"/>
  </g>
</svg>
